<svg width="173" height="312" viewBox="0 0 173 312" fill="none" xmlns="http://www.w3.org/2000/svg">
<path d="M27 10L29.6786 5.77804L22 0.906304L22 10L27 10ZM0.333345 285C0.333346 299.728 12.2724 311.667 27 311.667C41.7276 311.667 53.6667 299.728 53.6667 285C53.6667 270.272 41.7276 258.333 27 258.333C12.2724 258.333 0.333345 270.272 0.333345 285ZM146 85.5L151 85.5L151 82.7508L148.679 81.278L146 85.5ZM119.333 201.5C119.333 216.228 131.272 228.167 146 228.167C160.728 228.167 172.667 216.228 172.667 201.5C172.667 186.772 160.728 174.833 146 174.833C131.272 174.833 119.333 186.772 119.333 201.5ZM22 10L22 285L32 285L32 10L22 10ZM24.3214 14.222L143.321 89.722L148.679 81.278L29.6786 5.77804L24.3214 14.222ZM141 85.5C141 104.833 141 133.833 141 158C141 170.083 141 180.958 141 188.812C141 192.74 141 195.911 141 198.102C141 199.197 141 200.046 141 200.622C141 200.91 141 201.129 141 201.277C141 201.351 141 201.406 141 201.444C141 201.463 141 201.476 141 201.486C141 201.492 141 201.493 141 201.496C141 201.498 141 201.499 141 201.499C141 201.5 141 201.5 146 201.5C151 201.5 151 201.5 151 201.499C151 201.499 151 201.498 151 201.496C151 201.494 151 201.491 151 201.486C151 201.476 151 201.463 151 201.444C151 201.406 151 201.351 151 201.277C151 201.129 151 200.91 151 200.622C151 200.046 151 199.197 151 198.102C151 195.911 151 192.74 151 188.812C151 180.958 151 170.083 151 158C151 133.833 151 104.833 151 85.5L141 85.5Z" fill="white"/>
</svg>
